HIERARCHY
ROOT root     
{
	OFFSET 0.0000 0.0000 0.0000
	CHANNELS 6 Xposition Yposition Zposition Zrotation Yrotation Xrotation
	JOINT pelvis   
	{
		OFFSET 0.0000 0.0000 0.0000
		CHANNELS 3 Zrotation Yrotation Xrotation
		JOINT thorax   
		{
			OFFSET 0.0000 23.0750 -5.0000
			CHANNELS 3 Zrotation Yrotation Xrotation
			JOINT rclavicle
			{
				OFFSET 0.0000 28.0009 0.0000
				CHANNELS 3 Zrotation Yrotation Xrotation
				JOINT rhumerus 
				{
					OFFSET -18.5725 5.5939 0.0000
					CHANNELS 3 Zrotation Yrotation Xrotation
					JOINT rradius  
					{
						OFFSET -24.8459 0.0000 0.0000
						CHANNELS 3 Zrotation Yrotation Xrotation
						JOINT rhand    
						{
							OFFSET -24.5477 0.0000 0.0000
							CHANNELS 3 Zrotation Yrotation Xrotation
							End Site
							{
								OFFSET -8.1826 0.0000 0.0000
							}
						}
					}
				}
			}
			JOINT lclavicle
			{
				OFFSET 0.0000 28.0009 0.0000
				CHANNELS 3 Zrotation Yrotation Xrotation
				JOINT lhumerus 
				{
					OFFSET 18.5725 5.5939 0.0000
					CHANNELS 3 Zrotation Yrotation Xrotation
					JOINT lradius  
					{
						OFFSET 24.8459 0.0000 0.0000
						CHANNELS 3 Zrotation Yrotation Xrotation
						JOINT lhand    
						{
							OFFSET 24.5477 0.0000 0.0000
							CHANNELS 3 Zrotation Yrotation Xrotation
							End Site
							{
								OFFSET 8.1826 0.0000 0.0000
							}
						}
					}
				}
			}
			JOINT head     
			{
				OFFSET 0.0000 35.2030 0.0000
				CHANNELS 3 Zrotation Yrotation Xrotation
				End Site
				{
					OFFSET 0.0000 11.7343 0.0000
				}
			}
		}
		JOINT rfemur   
		{
			OFFSET -8.2817 0.0000 0.0000
			CHANNELS 3 Zrotation Yrotation Xrotation
			JOINT rtibia   
			{
				OFFSET 0.0000 -43.3627 0.0000
				CHANNELS 3 Zrotation Yrotation Xrotation
				JOINT rfoot    
				{
					OFFSET 0.0000 -38.2947 0.0000
					CHANNELS 3 Zrotation Yrotation Xrotation
					JOINT rtoes    
					{
						OFFSET 0.0000 0.0000 16.6054
						CHANNELS 3 Zrotation Yrotation Xrotation
						End Site
						{
							OFFSET 0.0000 0.0000 5.5351
						}
					}
				}
			}
		}
		JOINT lfemur   
		{
			OFFSET 8.2817 0.0000 0.0000
			CHANNELS 3 Zrotation Yrotation Xrotation
			JOINT ltibia   
			{
				OFFSET 0.0000 -43.3627 0.0000
				CHANNELS 3 Zrotation Yrotation Xrotation
				JOINT lfoot    
				{
					OFFSET 0.0000 -38.2947 0.0000
					CHANNELS 3 Zrotation Yrotation Xrotation
					JOINT ltoes    
					{
						OFFSET 0.0000 0.0000 16.6054
						CHANNELS 3 Zrotation Yrotation Xrotation
						End Site
						{
							OFFSET 0.0000 0.0000 5.5351
						}
					}
				}
			}
		}
	}
}
MOTION
Frames: 19
Frame Time: .0333333
-85.849 76.434 -4.8625 -102.584 79.5178 -70.5123 0 -0 0 -13.6475 -7.06231 23.1453 18.1612 -11.2049 4.08701e-05 57.5005 -13.6723 20.4354 -9.70625e-07 69.2934 -1.40457e-06 -1.49442 1.38876 -0.0180998 -1.88669 6.16173 -9.02463e-08 -43.4946 -11.3493 -2.29895 -180 -85.5066 180 -0.249497 4.94571 -0.0107998 3.46989 4.20892 -6.2804 15.4328 -3.76791 -67.5079 -0 -0 71.4715 -8.33939e-07 -8.36289 -7.60336 1.1143 -3.98297e-06 -24.9097 -9.3431 21.5136 -70.0903 -0 -0 70.2634 1.72282e-05 5.01472 -16.1136 -1.39506 1.30291e-05 -30.3967 
-85.149 76.562 -4.8522 -102.055 79.4815 -70.0714 0 -0 0 -13.5718 -7.22496 23.1259 18.1702 -11.3336 -7.23648e-05 57.0735 -13.9236 20.5401 -9.88858e-07 69.1825 -6.8195e-07 -1.30953 1.35704 -0.015501 -1.77169 6.15233 -1.1756e-07 -42.8008 -11.7833 -2.65224 -180 -85.1991 180 -0.266204 5.00198 -0.0116002 3.675 4.26057 -6.4876 15.5287 -3.44855 -68.2905 -0 -0 69.28 -2.39666e-06 -8.31932 -7.36477 1.07389 1.57288e-06 -25.7692 -9.23177 21.9507 -69.432 -0 -0 70.17 -1.11385e-05 4.85078 -16.3015 -1.36454 -1.73262e-05 -31.3091 
-84.433 76.682 -4.8456 -101.574 79.4741 -69.6953 0 -0 0 -13.5005 -7.39147 23.1052 18.1739 -11.4742 -6.57032e-05 56.6459 -14.1812 20.6682 -9.60112e-07 69.1061 -1.3942e-06 -1.12019 1.3227 -0.0128998 -1.67965 6.15075 -1.43044e-06 -42.1164 -12.1886 -2.97569 180 -84.9239 180 -0.240602 5.06555 -0.0106002 3.87665 4.30239 -6.6972 15.6119 -3.16816 -68.968 -0 -0 66.9614 1.27276e-06 -8.24673 -7.05568 1.0199 -2.0324e-06 -26.8684 -9.10952 22.357 -68.7221 -0 -0 70.066 -2.1473e-05 4.69921 -16.4965 -1.33713 -1.39661e-05 -32.3331 
-83.702 76.794 -4.8427 -101.156 79.4862 -69.3984 0 -0 0 -13.4308 -7.56431 23.0788 18.1701 -11.6271 0.000120067 56.2198 -14.4416 20.8183 -0 69.0607 -0 -0.931815 1.28421 -0.0104003 -1.60767 6.16209 1.50531e-06 -41.4504 -12.5661 -3.26234 -180 -84.641 180 -0.182198 5.13188 -0.00819982 4.07462 4.33405 -6.90468 15.6861 -2.92651 -69.5452 -0 -0 64.5252 2.69427e-06 -8.15192 -6.66516 0.952494 3.43305e-06 -28.1955 -8.97601 22.7313 -67.9655 -0 -0 69.9522 -4.98047e-06 4.55954 -16.6879 -1.31188 1.06776e-05 -33.4753 
-82.953 76.898 -4.8435 -100.793 79.5279 -69.1712 0 -0 0 -13.3615 -7.74651 23.0468 18.1615 -11.7913 -4.71837e-05 55.7965 -14.7044 20.9913 -9.8324e-07 69.0419 -6.76273e-07 -0.750001 1.2408 -0.00809999 -1.55973 6.19384 -1.7924e-06 -40.8005 -12.921 -3.50447 -180 -84.3583 180 -0.101 5.20195 -0.00459994 4.26865 4.35599 -7.10654 15.7616 -2.72929 -70.0299 -0 -0 61.9859 3.4191e-06 -8.03975 -6.19946 0.873906 -2.30467e-06 -29.6053 -8.83014 23.0731 -67.1632 -0 -0 69.8343 3.86692e-06 4.42797 -16.884 -1.28837 9.29395e-06 -34.5427 
-82.188 76.991 -4.8478 -100.482 79.5928 -69.0077 0 -0 0 -13.2945 -7.93672 23.0046 18.1434 -11.966 -5.35978e-05 55.3781 -14.97 21.1855 -9.83476e-07 69.047 -6.76508e-07 -0.579603 1.19221 -0.00600014 -1.52499 6.24316 -1.07392e-06 -40.1818 -13.2452 -3.69943 -180 -84.0833 180 -0.0102001 5.26663 -0.000500011 4.46194 4.36612 -7.30177 15.8406 -2.57378 -70.4282 -0 -0 59.357 1.69667e-06 -7.91871 -5.64968 0.784504 2.50623e-06 -31.101 -8.67407 23.3829 -66.3209 -0 -0 69.7123 4.55863e-06 4.30423 -17.0668 -1.26545 -1.53564e-05 -35.6068 
-81.406 77.075 -4.8551 -100.219 79.688 -68.8992 0 -0 0 -13.228 -8.13427 22.9499 18.1195 -12.1488 1.43872e-05 54.9648 -15.2379 21.4011 -0 69.0752 -0 -0.425008 1.13879 -0.00420009 -1.4967 6.30878 -2.08213e-07 -39.605 -13.5323 -3.84427 -180 -83.7961 180 0.0789003 5.32021 0.00370003 4.65782 4.36327 -7.49101 15.9287 -2.45892 -70.7481 -0 -0 56.653 3.56026e-06 -7.79412 -5.01904 0.686111 -4.95929e-06 -32.6385 -8.50829 23.658 -65.4484 -0 -0 69.5916 1.24164e-05 4.18607 -17.2305 -1.24197 9.43111e-06 -36.6295 
-80.61 77.15 -4.8648 -100.001 79.8016 -68.8408 0 -0 0 -13.1623 -8.33766 22.8803 18.0876 -12.3409 2.529e-05 54.5575 -15.5102 21.6363 -0 69.1284 -0 -0.290003 1.08079 -0.00270003 -1.469 6.38931 7.9845e-07 -39.0753 -13.777 -3.93709 -180 -83.5105 180 0.156401 5.35878 0.00729994 4.85988 4.34641 -7.67663 16.0312 -2.3818 -70.9962 -0 -0 53.8886 -7.27049e-06 -7.6667 -4.31479 0.58031 8.26262e-06 -34.2031 -8.33456 23.9019 -64.5498 -0 -0 69.4731 9.10651e-06 4.07156 -17.3725 -1.21765 -1.7552e-05 -37.5981 
-79.797 77.214 -4.8765 -99.835 79.9365 -68.8388 0 -0 0 -13.0972 -8.54467 22.7995 18.0505 -12.5374 0.000141001 54.1556 -15.7902 21.8914 -6.82988e-07 69.2064 -9.89894e-07 -0.1775 1.0191 -0.00159999 -1.43933 6.48089 -9.95249e-07 -38.5972 -13.9729 -3.97646 -180 -83.1943 180 0.215293 5.38161 0.0100996 5.07187 4.31489 -7.8622 16.1521 -2.3431 -71.1779 -0 -0 51.0792 1.85683e-06 -7.53138 -3.55143 0.469194 1.03751e-06 -35.792 -8.15396 24.1158 -63.628 -0 -0 69.3566 -1.50819e-05 3.95873 -17.4928 -1.1916 2.60581e-07 -38.5131 
-78.969 77.269 -4.8891 -99.703 80.0942 -68.8729 0 -0 0 -13.0316 -8.75234 22.7033 18.0104 -12.7411 -8.46505e-05 53.7533 -16.0778 22.167 -6.87304e-07 69.3167 -9.94142e-07 -0.0904991 0.9543 -0.000799986 -1.40012 6.58123 -1.46047e-06 -38.1784 -14.1158 -3.96093 -180 -82.8625 180 0.249606 5.3865 0.0117004 5.29807 4.26816 -8.0523 16.2921 -2.33599 -71.2958 -0 -0 48.2376 8.2918e-07 -7.38395 -2.74491 0.3556 2.2283e-06 -37.4247 -7.96673 24.3031 -62.6863 -0 -0 69.2456 -8.41047e-06 3.8457 -17.5942 -1.16399 3.66773e-06 -39.3672 
-78.127 77.314 -4.9019 -99.6255 80.2636 -68.9638 0 -0 0 -12.9635 -8.95832 22.5974 17.9678 -12.9492 -8.2468e-05 53.3497 -16.3745 22.4666 -0 69.4581 -0 -0.0293001 0.885996 -0.000200009 -1.34831 6.6892 -1.31333e-06 -37.8199 -14.2049 -3.88941 -180 -82.5069 180 0.258005 5.37149 0.0121002 5.54098 4.20737 -8.25161 16.446 -2.35329 -71.3501 -0 -0 45.3757 -4.35688e-07 -7.21877 -1.91388 0.242393 -6.30208e-07 -39.1241 -7.77144 24.4647 -61.7251 -0 -0 69.1386 6.48639e-06 3.73391 -17.6724 -1.13499 2.70356e-06 -40.2933 
-77.268 77.349 -4.9147 -99.6169 80.4464 -69.1277 0 -0 0 -12.8929 -9.16184 22.4847 17.9262 -13.1586 -0.000120108 52.9389 -16.6854 22.7866 -7.00515e-07 69.6364 -1.00721e-06 0.00570012 0.817201 2.70568e-09 -1.28892 6.79661 -1.23185e-06 -37.5115 -14.2294 -3.76678 180 -82.1258 180 0.240005 5.34568 0.0112001 5.80304 4.13277 -8.46227 16.6193 -2.39938 -71.3438 -0 -0 42.508 8.97214e-08 -7.01989 -1.0872 0.133906 2.18762e-06 -40.8722 -7.56843 24.6015 -60.7425 -0 -0 69.0333 -1.80327e-05 3.6201 -17.7473 -1.10482 9.2865e-07 -41.201 
-76.392 77.374 -4.9271 -99.683 80.651 -69.373 0 -0 0 -12.8188 -9.36095 22.3694 17.8853 -13.3694 2.84151e-05 52.5201 -17.0119 23.1277 -0 69.8565 -0 0.0160002 0.749103 9.99598e-05 -1.22138 6.89814 1.14711e-06 -37.2522 -14.1866 -3.59446 -180 -81.7014 180 0.197 5.31204 0.00909999 6.0859 4.04517 -8.6862 16.8039 -2.47061 -71.2743 -0 -0 39.6477 -7.39985e-07 -6.7806 -0.286692 0.0340995 -5.37893e-08 -42.6602 -7.35646 24.7159 -59.7319 -0 -0 68.9283 -7.47968e-06 3.50466 -17.8222 -1.0738 3.74932e-06 -42.1372 
-75.5 77.388 -4.9381 -99.8276 80.8679 -69.7012 0 -0 0 -12.7377 -9.55634 22.2529 17.8497 -13.5836 1.36987e-06 52.0843 -17.3498 23.4982 -0 70.1223 -0 0.00450001 0.681398 -1.03225e-08 -1.14391 7.00244 2.73442e-07 -37.0421 -14.0898 -3.36781 -180 -81.2474 180 0.132396 5.26893 0.00609992 6.39001 3.94685 -8.92542 16.981 -2.55445 -71.1432 -0 -0 36.7988 4.78107e-07 -6.51261 0.473991 -0.0541003 -2.99565e-07 -44.466 -7.13446 24.8101 -58.6965 -0 -0 68.8211 6.87264e-06 3.38975 -17.8937 -1.04261 3.27778e-06 -43.2052 
-74.59 77.392 -4.9487 -100.105 81.0913 -70.1711 0 -0 0 -12.6532 -9.74834 22.1388 17.8188 -13.7968 5.83568e-05 51.6316 -17.7054 23.8921 -0 70.4311 -0 -0.0246996 0.619304 -9.99997e-05 -1.0627 7.09346 6.43664e-07 -36.8692 -13.9228 -3.0962 -180 -80.7612 180 0.0483994 5.22684 0.0021999 6.71566 3.83739 -9.17623 17.152 -2.66095 -70.9532 -0 -0 33.9837 -3.47647e-08 -6.20895 1.17379 -0.127703 -8.44677e-07 -46.2178 -6.90383 24.8797 -57.6294 -0 -0 68.7074 5.77672e-06 3.27293 -17.9814 -1.0114 2.4133e-07 -44.2795 
-73.662 77.385 -4.9584 -100.512 81.3295 -70.7779 0 -0 0 -12.5616 -9.93755 22.0284 17.7936 -14.0137 0.000114744 51.1587 -18.0735 24.3125 -1.0577e-06 70.7911 -7.51547e-07 -0.0659 0.562304 -0.000300008 -0.977298 7.18448 -2.58727e-07 -36.7324 -13.7048 -2.77334 -180 -80.2513 180 -0.0510998 5.18269 -0.00229998 7.06137 3.71857 -9.4378 17.2906 -2.7757 -70.7053 -0 -0 31.204 -1.81063e-06 -5.89919 1.81073 -0.187102 3.68251e-07 -47.8627 -6.66278 24.9251 -56.5295 -0 -0 68.5857 -1.24731e-05 3.15785 -18.0738 -0.980592 3.90711e-06 -45.5026 
-72.717 77.367 -4.9676 -101.072 81.5858 -71.5452 0 -0 0 -12.4652 -10.1258 21.9226 17.7735 -14.2329 -2.1701e-05 50.6668 -18.4536 24.7582 -1.07679e-06 71.1965 -7.70836e-07 -0.1129 0.514495 -0.000499967 -0.891794 7.27172 4.01095e-07 -36.6239 -13.437 -2.4032 -180 -79.7161 180 -0.163802 5.14229 -0.00740012 7.4256 3.58996 -9.70605 17.3865 -2.90237 -70.407 -0 -0 28.4781 -7.88372e-07 -5.60676 2.38181 -0.233803 -2.98046e-06 -49.3143 -6.4154 24.9453 -55.3975 -0 -0 68.4532 -7.77941e-06 3.04165 -18.1813 -0.949887 5.76567e-06 -46.7178 
-71.755 77.338 -4.9769 -101.824 81.8557 -72.5103 0 -0 0 -12.3628 -10.3171 21.8189 17.7576 -14.456 -5.04076e-05 50.1531 -18.8426 25.2275 -7.93352e-07 71.6445 -1.09912e-06 -0.158496 0.476805 -0.000699995 -0.807894 7.36766 3.4749e-07 -36.5407 -13.1374 -1.98033 -180 -79.1816 180 -0.287192 5.10262 -0.0127995 7.80505 3.45227 -9.97888 17.4202 -3.03321 -70.0632 -0 -0 25.8164 -2.26341e-06 -5.37125 2.895 -0.272098 -2.35554e-06 -50.5279 -6.16158 24.9354 -54.2341 -0 -0 68.3045 -1.34644e-05 2.9287 -18.2907 -0.919793 2.47976e-07 -48.0192 
-70.775 77.298 -4.9881 -102.805 82.1388 -73.7092 0 -0 0 -12.264 -10.5108 21.7184 17.7414 -14.6789 8.66178e-05 49.6323 -19.2461 25.7098 -0 72.1331 -0 -0.195006 0.454195 -0.000800017 -0.724506 7.45497 2.66483e-07 -36.4782 -12.7861 -1.51592 -180 -78.6228 180 -0.4226 5.06819 -0.0186997 8.19817 3.30185 -10.251 17.3873 -3.17965 -69.6932 -0 -0 23.2551 -3.33349e-06 -5.21716 3.35022 -0.305698 3.20879e-06 -51.4227 -5.91126 24.8907 -53.0373 -0 -0 68.1385 1.44353e-05 2.81746 -18.4103 -0.890499 -1.0555e-06 -49.2407 
